<?xml version="1.0" encoding="UTF-8" standalone="no"?>
<!-- Created with Inkscape (http://www.inkscape.org/) -->

<svg
   xmlns:dc="http://purl.org/dc/elements/1.1/"
   xmlns:cc="http://creativecommons.org/ns#"
   xmlns:rdf="http://www.w3.org/1999/02/22-rdf-syntax-ns#"
   xmlns:svg="http://www.w3.org/2000/svg"
   xmlns="http://www.w3.org/2000/svg"
   xmlns:sodipodi="http://sodipodi.sourceforge.net/DTD/sodipodi-0.dtd"
   xmlns:inkscape="http://www.inkscape.org/namespaces/inkscape"
   width="100mm"
   height="100mm"
   viewBox="0 0 354.33071 354.33071"
   id="svg20944"
   version="1.1"
   inkscape:version="0.91 r13725"
   sodipodi:docname="FSMI-logo.svg">
  <defs
     id="defs20946">
    <inkscape:path-effect
       is_visible="true"
       id="path-effect6139-6-6"
       effect="spiro" />
    <inkscape:path-effect
       is_visible="true"
       id="path-effect6683-2-97"
       effect="spiro" />
    <inkscape:path-effect
       is_visible="true"
       id="path-effect6139-6-2-1"
       effect="spiro" />
    <inkscape:path-effect
       is_visible="true"
       id="path-effect6683-2-9-50"
       effect="spiro" />
  </defs>
  <sodipodi:namedview
     id="base"
     pagecolor="#ffffff"
     bordercolor="#666666"
     borderopacity="1.0"
     inkscape:pageopacity="0.0"
     inkscape:pageshadow="2"
     inkscape:zoom="0.7"
     inkscape:cx="146.46186"
     inkscape:cy="194.96841"
     inkscape:document-units="px"
     inkscape:current-layer="layer1"
     showgrid="false"
     inkscape:window-width="1366"
     inkscape:window-height="704"
     inkscape:window-x="0"
     inkscape:window-y="27"
     inkscape:window-maximized="1" />
  <metadata
     id="metadata20949">
    <rdf:RDF>
      <cc:Work
         rdf:about="">
        <dc:format>image/svg+xml</dc:format>
        <dc:type
           rdf:resource="http://purl.org/dc/dcmitype/StillImage" />
        <dc:title></dc:title>
      </cc:Work>
    </rdf:RDF>
  </metadata>
  <g
     inkscape:label="Layer 1"
     inkscape:groupmode="layer"
     id="layer1"
     transform="translate(0,-698.0315)">
    <g
       transform="matrix(2.6151041,0,0,2.6151041,-6321.7187,-8548.3673)"
       id="g20913">
      <g
         id="g6685-7-3"
         transform="translate(1808.9042,2970.6592)">
        <ellipse
           style="color:#000000;clip-rule:nonzero;display:inline;overflow:visible;visibility:visible;opacity:1;isolation:auto;mix-blend-mode:normal;color-interpolation:sRGB;color-interpolation-filters:linearRGB;solid-color:#000000;solid-opacity:1;fill:#940a0b;fill-opacity:1;fill-rule:evenodd;stroke:none;stroke-width:4.05070734;stroke-linecap:butt;stroke-linejoin:miter;stroke-miterlimit:4;stroke-dasharray:none;stroke-dashoffset:0;stroke-opacity:1;color-rendering:auto;image-rendering:auto;shape-rendering:auto;text-rendering:auto;enable-background:accumulate"
           id="path3376-5-5"
           cx="669.80505"
           cy="580.05096"
           rx="6.5093045"
           ry="11.321091" />
        <path
           style="fill:#940a0b;fill-opacity:1;fill-rule:evenodd;stroke:none;stroke-width:0.30000001;stroke-linecap:butt;stroke-linejoin:miter;stroke-miterlimit:4;stroke-dasharray:none;stroke-opacity:1"
           d="m 655.61518,669.08096 c 1.21308,-7.82538 2.72826,-15.60393 4.54105,-23.3125 5.29703,-22.52474 13.14429,-44.44873 23.34375,-65.21874 l 3.125,-5.5 1.40625,-1.78125 -2.75,3.125 c -6.37815,10.58491 -11.5649,21.84029 -16.3125,33.25 -0.92226,2.21643 -1.83893,4.43519 -2.75,6.65625 -0.96462,2.3516 -1.92296,4.70578 -2.875,7.0625 -4.76342,11.79152 -9.16848,23.74394 -12.5625,35.99999 -0.5184,2.07339 -1.10064,4.13083 -1.74561,6.1684 -0.50339,1.59028 -1.04504,3.16861 -1.63518,4.72878 -0.40458,1.06959 -0.83192,2.13057 -1.28163,3.18198 l 9.49637,-4.36041 z"
           id="path6137-4-70"
           inkscape:path-effect="#path-effect6139-6-6"
           inkscape:original-d="m 655.61518,669.08096 c 1.12851,-8.77884 2.41687,-15.16257 4.54105,-23.3125 7.80784,-25.13503 13.03249,-43.74977 23.34375,-65.21874 l 3.125,-5.5 1.40625,-1.78125 -2.75,3.125 c -7.1254,10.32683 -11.83562,22.63367 -16.3125,33.25 l -2.75,6.65625 -2.875,7.0625 c -4.83569,13.1412 -6.17288,23.8995 -12.5625,35.99999 l -1.74561,6.1684 -1.63518,4.72878 -1.28163,3.18198 z"
           inkscape:connector-curvature="0"
           sodipodi:nodetypes="cccccccccccccc" />
        <path
           style="fill:#940a0b;fill-opacity:1;fill-rule:evenodd;stroke:#000000;stroke-width:0.03;stroke-linecap:butt;stroke-linejoin:miter;stroke-miterlimit:4;stroke-dasharray:none;stroke-opacity:1"
           d="m 660.34373,621.33097 c 0.486,-1.4085 1.00705,-2.80491 1.5625,-4.1875 0.4875,-1.21344 1.00142,-2.41607 1.5,-3.625 0.66449,-1.61122 1.3017,-3.23359 1.96875,-4.84375 0.5968,-1.44058 1.21742,-2.87121 1.8125,-4.3125 0.47468,-1.14968 0.93307,-2.30609 1.375,-3.46875 l 0.75,-1.3125 c -0.6046,-0.56927 -1.2284,-1.11813 -1.86999,-1.64535 -0.49069,-0.40321 -0.99177,-0.79377 -1.5026,-1.17114 -0.40516,-0.44144 -0.81772,-0.8761 -1.23743,-1.30373 -0.44148,-0.44981 -0.89088,-0.89184 -1.34793,-1.32583 l -1.19324,-1.85615 -0.70711,-1.37002 -0.59662,-2.23181 -0.68502,-5.2591 -1.84444,1.38188 c -0.84985,0.48278 -1.70836,0.95033 -2.57497,1.40235 -0.51115,0.26661 -1.0252,0.52786 -1.5468,0.7734 -0.17594,0.0828 -0.35273,0.16385 -0.53033,0.24307 l 0.85522,0.89368 c 0.39146,0.52542 0.78209,1.05146 1.17188,1.57812 0.32349,0.43708 0.64641,0.87458 0.96875,1.3125 0.33712,0.60171 0.66015,1.21131 0.96875,1.82813 0.28877,0.57719 0.5649,1.16071 0.82812,1.75 1.15999,4.38146 1.87992,8.88047 2.12495,13.40625 0.0631,1.16552 0.0944,2.33277 0.0937,3.5 -4.1e-4,0.73967 -0.0136,1.47929 -0.0312,2.21875 -0.025,1.05268 -0.0588,2.10535 -0.125,3.15625 -0.069,1.09672 -0.17328,2.19122 -0.3125,3.28125 l 0.12506,1.1875 z"
           id="path6681-5-8"
           inkscape:path-effect="#path-effect6683-2-97"
           inkscape:original-d="m 660.34373,621.33097 1.5625,-4.1875 1.5,-3.625 1.96875,-4.84375 1.8125,-4.3125 1.375,-3.46875 0.75,-1.3125 -1.86999,-1.64535 -1.5026,-1.17114 -1.23743,-1.30373 -1.34793,-1.32583 -1.19324,-1.85615 -0.70711,-1.37002 -0.59662,-2.23181 c -0.363,-1.92356 -0.55039,-3.40821 -0.68502,-5.2591 l -1.84444,1.38188 -2.57497,1.40235 -1.5468,0.7734 -0.53033,0.24307 0.85522,0.89368 1.17188,1.57812 0.96875,1.3125 0.96875,1.82813 0.82812,1.75 c 1.48343,4.40641 2.05149,9.5067 2.12495,13.40625 l 0.0937,3.5 -0.0312,2.21875 -0.125,3.15625 -0.3125,3.28125 z"
           inkscape:connector-curvature="0"
           sodipodi:nodetypes="cccccccccccccccccccccccccccccc" />
      </g>
      <g
         style="fill:#007700;fill-opacity:1"
         id="g6685-7-5-5"
         transform="translate(1835.4042,2993.6592)">
        <ellipse
           style="color:#000000;clip-rule:nonzero;display:inline;overflow:visible;visibility:visible;opacity:1;isolation:auto;mix-blend-mode:normal;color-interpolation:sRGB;color-interpolation-filters:linearRGB;solid-color:#000000;solid-opacity:1;fill:#007700;fill-opacity:1;fill-rule:evenodd;stroke:none;stroke-width:4.05070734;stroke-linecap:butt;stroke-linejoin:miter;stroke-miterlimit:4;stroke-dasharray:none;stroke-dashoffset:0;stroke-opacity:1;color-rendering:auto;image-rendering:auto;shape-rendering:auto;text-rendering:auto;enable-background:accumulate"
           id="path3376-5-4-4"
           cx="669.80505"
           cy="580.05096"
           rx="6.5093045"
           ry="11.321091" />
        <path
           style="fill:#007700;fill-opacity:1;fill-rule:evenodd;stroke:none;stroke-width:0.30000001;stroke-linecap:butt;stroke-linejoin:miter;stroke-miterlimit:4;stroke-dasharray:none;stroke-opacity:1"
           d="m 655.61518,669.08096 c 1.21308,-7.82538 2.72826,-15.60393 4.54105,-23.3125 5.29703,-22.52474 13.14429,-44.44873 23.34375,-65.21874 l 3.125,-5.5 1.40625,-1.78125 -2.75,3.125 c -6.37815,10.58491 -11.5649,21.84029 -16.3125,33.25 -0.92226,2.21643 -1.83893,4.43519 -2.75,6.65625 -0.96462,2.3516 -1.92296,4.70578 -2.875,7.0625 -4.76342,11.79152 -9.16848,23.74394 -12.5625,35.99999 -0.5184,2.07339 -1.10064,4.13083 -1.74561,6.1684 -0.50339,1.59028 -1.04504,3.16861 -1.63518,4.72878 -0.40458,1.06959 -0.83192,2.13057 -1.28163,3.18198 l 9.49637,-4.36041 z"
           id="path6137-4-7-14"
           inkscape:path-effect="#path-effect6139-6-2-1"
           inkscape:original-d="m 655.61518,669.08096 c 1.12851,-8.77884 2.41687,-15.16257 4.54105,-23.3125 7.80784,-25.13503 13.03249,-43.74977 23.34375,-65.21874 l 3.125,-5.5 1.40625,-1.78125 -2.75,3.125 c -7.1254,10.32683 -11.83562,22.63367 -16.3125,33.25 l -2.75,6.65625 -2.875,7.0625 c -4.83569,13.1412 -6.17288,23.8995 -12.5625,35.99999 l -1.74561,6.1684 -1.63518,4.72878 -1.28163,3.18198 z"
           inkscape:connector-curvature="0"
           sodipodi:nodetypes="cccccccccccccc" />
        <path
           style="fill:#007700;fill-opacity:1;fill-rule:evenodd;stroke:#000000;stroke-width:0.03;stroke-linecap:butt;stroke-linejoin:miter;stroke-miterlimit:4;stroke-dasharray:none;stroke-opacity:1"
           d="m 660.34373,621.33097 c 0.486,-1.4085 1.00705,-2.80491 1.5625,-4.1875 0.4875,-1.21344 1.00142,-2.41607 1.5,-3.625 0.66449,-1.61122 1.3017,-3.23359 1.96875,-4.84375 0.5968,-1.44058 1.21742,-2.87121 1.8125,-4.3125 0.47468,-1.14968 0.93307,-2.30609 1.375,-3.46875 l 0.75,-1.3125 c -0.6046,-0.56927 -1.2284,-1.11813 -1.86999,-1.64535 -0.49069,-0.40321 -0.99177,-0.79377 -1.5026,-1.17114 -0.40516,-0.44144 -0.81772,-0.8761 -1.23743,-1.30373 -0.44148,-0.44981 -0.89088,-0.89184 -1.34793,-1.32583 l -1.19324,-1.85615 -0.70711,-1.37002 -0.59662,-2.23181 -0.68502,-5.2591 -1.84444,1.38188 c -0.84985,0.48278 -1.70836,0.95033 -2.57497,1.40235 -0.51115,0.26661 -1.0252,0.52786 -1.5468,0.7734 -0.17594,0.0828 -0.35273,0.16385 -0.53033,0.24307 l 0.85522,0.89368 c 0.39146,0.52542 0.78209,1.05146 1.17188,1.57812 0.32349,0.43708 0.64641,0.87458 0.96875,1.3125 0.33712,0.60171 0.66015,1.21131 0.96875,1.82813 0.28877,0.57719 0.5649,1.16071 0.82812,1.75 1.15999,4.38146 1.87992,8.88047 2.12495,13.40625 0.0631,1.16552 0.0944,2.33277 0.0937,3.5 -4.1e-4,0.73967 -0.0136,1.47929 -0.0312,2.21875 -0.025,1.05268 -0.0588,2.10535 -0.125,3.15625 -0.069,1.09672 -0.17328,2.19122 -0.3125,3.28125 l 0.12506,1.1875 z"
           id="path6681-5-2-0"
           inkscape:path-effect="#path-effect6683-2-9-50"
           inkscape:original-d="m 660.34373,621.33097 1.5625,-4.1875 1.5,-3.625 1.96875,-4.84375 1.8125,-4.3125 1.375,-3.46875 0.75,-1.3125 -1.86999,-1.64535 -1.5026,-1.17114 -1.23743,-1.30373 -1.34793,-1.32583 -1.19324,-1.85615 -0.70711,-1.37002 -0.59662,-2.23181 c -0.363,-1.92356 -0.55039,-3.40821 -0.68502,-5.2591 l -1.84444,1.38188 -2.57497,1.40235 -1.5468,0.7734 -0.53033,0.24307 0.85522,0.89368 1.17188,1.57812 0.96875,1.3125 0.96875,1.82813 0.82812,1.75 c 1.48343,4.40641 2.05149,9.5067 2.12495,13.40625 l 0.0937,3.5 -0.0312,2.21875 -0.125,3.15625 -0.3125,3.28125 z"
           inkscape:connector-curvature="0"
           sodipodi:nodetypes="cccccccccccccccccccccccccccccc" />
      </g>
    </g>
  </g>
</svg>
